<svg width="22" height="22" viewBox="0 0 22 22" fill="none" xmlns="http://www.w3.org/2000/svg">
<path d="M11 1.83333L13.8325 7.57167L20.1667 8.4975L15.5834 12.9617L16.665 19.2683L11 16.2892L5.33504 19.2683L6.41671 12.9617L1.83337 8.4975L8.16754 7.57167L11 1.83333Z" fill="none"/>
<path fill-rule="evenodd" clip-rule="evenodd" d="M11.0001 1.33333C11.1904 1.33333 11.3642 1.44137 11.4484 1.61202L14.1647 7.1149L20.239 8.00276C20.4273 8.03028 20.5837 8.16228 20.6423 8.34328C20.701 8.52429 20.6519 8.72291 20.5156 8.85568L16.1206 13.1363L17.1579 19.1838C17.19 19.3714 17.1129 19.561 16.9589 19.6729C16.8049 19.7847 16.6008 19.7995 16.4323 19.7109L11.0001 16.8541L5.56778 19.7109C5.39932 19.7995 5.19518 19.7847 5.04119 19.6729C4.8872 19.561 4.81008 19.3714 4.84225 19.1838L5.87946 13.1363L1.48452 8.85568C1.34821 8.72291 1.29908 8.52429 1.35777 8.34328C1.41645 8.16228 1.57279 8.03028 1.76107 8.00276L7.83542 7.1149L10.5517 1.61202C10.6359 1.44137 10.8097 1.33333 11.0001 1.33333ZM11.0001 2.96296L8.61591 7.79298C8.54314 7.9404 8.40255 8.04263 8.23987 8.06641L2.90759 8.8458L6.76559 12.6035C6.88353 12.7184 6.93736 12.8839 6.90953 13.0462L5.99915 18.3542L10.7673 15.8466C10.913 15.77 11.0871 15.77 11.2328 15.8466L16.001 18.3542L15.0906 13.0462C15.0628 12.8839 15.1166 12.7184 15.2345 12.6035L19.0925 8.8458L13.7602 8.06641C13.5976 8.04263 13.457 7.9404 13.3842 7.79298L11.0001 2.96296Z" fill="#FFA033"/>
</svg>
